<?xml version="1.0" encoding="utf-8"?>
<!-- Generator: Adobe Illustrator 15.0.0, SVG Export Plug-In  -->
<!DOCTYPE svg PUBLIC "-//W3C//DTD SVG 1.1//EN" "http://www.w3.org/Graphics/SVG/1.1/DTD/svg11.dtd" [
	<!ENTITY ns_flows "http://ns.adobe.com/Flows/1.0/">
]>
<svg version="1.1"
	 xmlns="http://www.w3.org/2000/svg" xmlns:xlink="http://www.w3.org/1999/xlink" xmlns:a="http://ns.adobe.com/AdobeSVGViewerExtensions/3.0/"
	 x="0px" y="0px" width="292px" height="45px" viewBox="-3.865 -3.731 292 45"
	 overflow="visible" enable-background="new -3.865 -3.731 292 45" xml:space="preserve">
<defs>
</defs>
<rect x="1" y="1" fill="#181716" width="238" height="35.598"/>
<g>
	<defs>
		<rect id="SVGID_4_" y="0.002" width="284" height="37.598"/>
	</defs>
	<clipPath id="SVGID_5_">
		<use xlink:href="#SVGID_4_"  overflow="visible"/>
	</clipPath>
	<rect x="1" y="1" clip-path="url(#SVGID_5_)" fill="none" stroke="#FFFFFF" stroke-width="2" width="238" height="35.598"/>
</g>
<g>
	<defs>
		<rect id="SVGID_3_" y="0.002" width="284" height="37.598"/>
	</defs>
	<clipPath id="SVGID_6_">
		<use xlink:href="#SVGID_3_"  overflow="visible"/>
	</clipPath>
	<path clip-path="url(#SVGID_6_)" fill="#FFFFFF" d="M178.78,13.211V9.89h-13.123v18.9h3.727v-7.209h8.748v-3.375h-8.748v-4.995
		H178.78z M162.688,28.79v-3.321h-9.587V20.96h8.666v-3.375h-8.666v-4.374h9.313V9.89h-13.04v18.9H162.688z M142.95,19.205
		c0,5.184-2.89,6.397-5.211,6.397h-3.267V13.076h3.267C140.061,13.076,142.95,14.021,142.95,19.205 M146.812,19.069
		c0-6.532-3.779-9.18-8.181-9.18h-7.884v18.9h7.209c2.916,0,5.292-1.135,6.696-2.835C146.136,24.119,146.812,21.635,146.812,19.069
		 M121.836,28.79V9.89h-3.699v7.695h-7.992V9.89h-3.726v18.9h3.726v-7.83h7.992v7.83H121.836z M90.652,19.502
		c0-4.32,1.755-6.615,4.644-6.615c2.646,0,3.618,1.729,3.672,3.078h3.888c-0.027-2.403-1.782-6.372-7.452-6.372
		c-6.48,0-8.694,5.292-8.694,9.801c0,4.889,2.052,9.693,8.37,9.693c2.079,0,3.78-0.729,4.995-2.079v1.782h3.375V18.557h-8.073v3.24
		h4.509c-0.054,1.431-0.891,3.996-4.536,3.996C91.57,25.793,90.652,22.525,90.652,19.502 M84.145,9.89h-3.726v18.9h3.726V9.89z
		 M77.179,28.79V9.89H73.48v7.695h-7.992V9.89h-3.726v18.9h3.726v-7.83h7.992v7.83H77.179z"/>
</g>
<rect x="239.001" y="1" fill="#181716" width="44" height="35.598"/>
<g>
	<defs>
		<rect id="SVGID_2_" y="0.002" width="284" height="37.598"/>
	</defs>
	<clipPath id="SVGID_7_">
		<use xlink:href="#SVGID_2_"  overflow="visible"/>
	</clipPath>
	<rect x="239.001" y="1" clip-path="url(#SVGID_7_)" fill="none" stroke="#FFFFFF" stroke-width="2" width="44" height="35.598"/>
</g>
<g>
	<defs>
		<rect id="SVGID_1_" y="0.002" width="284" height="37.598"/>
	</defs>
	<clipPath id="SVGID_8_">
		<use xlink:href="#SVGID_1_"  overflow="visible"/>
	</clipPath>
	<path clip-path="url(#SVGID_8_)" fill="#FFFFFF" d="M270.497,20.48c0,0.84-0.551,1.279-1.502,1.279h-2.021v-2.49h1.562
		C269.655,19.27,270.497,19.529,270.497,20.48 M270.286,17.33c0,0.8-0.65,1.22-1.41,1.22h-1.9v-2.312h2.01
		C269.696,16.238,270.286,16.509,270.286,17.33 M271.364,20.55c0-1.062-0.729-1.551-1.379-1.689c0.521-0.21,1.129-0.75,1.129-1.641
		c0-1.42-1.197-1.72-2.238-1.72h-2.75v6.999h3.041C270.687,22.499,271.364,21.49,271.364,20.55 M261.895,15.391
		c-2.29,0-3.159,1.92-3.159,3.63c0,1.39,0.52,3.589,3.012,3.589c1.379,0,2.01-0.759,2.209-1.079v0.97h0.77v-3.58h-2.859v0.779h2.07
		c0,1.011-0.6,2.15-2.121,2.15c-1.75,0-2.18-1.541-2.18-2.82c0-1.43,0.6-2.87,2.26-2.87c1.07,0,1.59,0.63,1.721,1.511h0.931
		C264.476,16.919,263.927,15.391,261.895,15.391 M253.966,20.141h-2.609l2.609-3.891V20.141z M255.685,20.829v-0.688h-0.889V15.59
		h-1.209l-2.961,4.391v0.85h3.34v1.67h0.83v-1.67L255.685,20.829L255.685,20.829z"/>
</g>
</svg>
