<?xml version="1.0" encoding="utf-8"?>
<!-- Generator: Adobe Illustrator 15.0.0, SVG Export Plug-In  -->
<!DOCTYPE svg PUBLIC "-//W3C//DTD SVG 1.1//EN" "http://www.w3.org/Graphics/SVG/1.1/DTD/svg11.dtd" [
	<!ENTITY ns_flows "http://ns.adobe.com/Flows/1.0/">
]>
<svg version="1.1"
	 xmlns="http://www.w3.org/2000/svg" xmlns:xlink="http://www.w3.org/1999/xlink" xmlns:a="http://ns.adobe.com/AdobeSVGViewerExtensions/3.0/"
	 x="0px" y="0px" width="842px" height="595px" viewBox="-211.877 -62.051 842 595"
	 overflow="visible" enable-background="new -211.877 -62.051 842 595" xml:space="preserve">
<defs>
</defs>
<path fill="#FFFFFF" d="M292.128,65.839h1.943c1.539,0,2.066-0.76,2.52-2.049l3.277-9.529h-2.502l-1.662,5.626l-1.664-5.626h-2.596
	l2.984,8.597c-0.156,0.683-0.342,0.962-0.84,0.962h-1.461V65.839L292.128,65.839z M286.085,57.788c0-1.135,0.652-1.648,1.383-1.648
	c0.889,0,1.229,0.653,1.229,1.414v5.3h2.395v-5.859c0-1.662-1.088-2.842-3.029-2.842c-1.012,0-1.93,0.325-2.58,1.086
	c-0.406-0.637-1.104-1.086-2.27-1.086c-1.012,0-1.758,0.402-2.178,0.916V54.26h-2.361v8.594h2.393v-5.065
	c0-1.136,0.668-1.649,1.398-1.649c0.889,0,1.215,0.653,1.215,1.414v5.3h2.408v-5.066H286.085z M271.828,57.493
	c0.094-0.855,0.793-1.462,1.68-1.462c0.746,0,1.461,0.404,1.555,1.462H271.828z M273.429,62.963c2.953,0,3.947-1.941,4.072-3.013
	l-2.361-0.047c-0.031,0.279-0.391,1.119-1.633,1.119c-1.305,0-1.758-0.994-1.758-1.944h5.908v-0.295
	c0-2.736-1.494-4.629-4.166-4.629c-2.471,0-4.242,1.753-4.242,4.411C269.25,61.131,270.679,62.963,273.429,62.963 M262.177,58.58
	c0-1.166,0.436-2.486,1.928-2.486c0.5,0,1.043,0.108,1.367,0.591c0.25,0.357,0.359,0.901,0.359,1.865
	c0,0.747-0.047,1.336-0.311,1.772c-0.266,0.42-0.764,0.7-1.512,0.7c-1.537,0-1.834-1.398-1.834-2.44V58.58H262.177z M265.863,62.854
	h2.346V51.355h-2.393v3.449c-0.373-0.357-1.105-0.651-2.068-0.651c-2.549,0-4.025,1.909-4.025,4.474
	c0,1.275,0.438,4.335,3.809,4.335c1.354,0,2.066-0.559,2.332-0.838V62.854L265.863,62.854z M251.085,57.073h2.312
	c0-0.342,0.094-1.057,1.512-1.057c1.148,0,1.43,0.404,1.43,0.995v0.295l-2.832,0.405c-0.791,0.108-2.701,0.591-2.701,2.549
	c0,1.725,1.211,2.703,2.982,2.703c1.477,0,2.24-0.497,2.613-0.884v0.775h2.529c0,0-0.186-0.653-0.186-1.275v-4.63
	c0-1.242-0.527-2.795-3.684-2.795C251.798,54.153,251.117,55.815,251.085,57.073 M256.339,59.561c0,0.73-0.498,1.663-1.914,1.663
	c-0.918,0-1.166-0.575-1.166-0.964c0-0.544,0.42-0.886,0.998-0.995c0.588-0.124,2.082-0.311,2.082-0.311V59.561z M247.833,59.607
	c-0.154,1.026-0.855,1.414-1.617,1.414c-0.979,0-1.756-0.699-1.756-2.455c0-1.773,0.762-2.473,1.787-2.473
	c0.809,0.001,1.432,0.404,1.555,1.46h2.408c-0.201-2.268-1.785-3.401-3.945-3.401c-2.473,0-4.271,1.537-4.271,4.444
	c0,2.922,1.676,4.366,4.146,4.366c2.207,0,3.838-1.133,4.086-3.355H247.833z M238.05,58.706h-2.502l1.26-4.819L238.05,58.706z
	 M238.611,60.803l0.561,2.052h2.674l-3.266-10.879h-3.434l-3.25,10.879h2.549l0.527-2.052H238.611z M226.001,59.607
	c-0.154,1.026-0.854,1.414-1.615,1.414c-0.979,0-1.756-0.699-1.756-2.455c0-1.773,0.762-2.473,1.785-2.473
	c0.811,0.001,1.432,0.404,1.557,1.46h2.408c-0.201-2.268-1.787-3.401-3.947-3.401c-2.471,0-4.271,1.537-4.271,4.444
	c0,2.922,1.678,4.366,4.146,4.366c2.207,0,3.842-1.133,4.09-3.355H226.001z M219.099,54.261h-2.391v8.593h2.391V54.261z
	 M219.099,51.355h-2.391v2.081h2.391V51.355z M213.044,56.808h2.346c0-0.668-0.342-2.655-3.695-2.655
	c-2.055,0-3.686,0.916-3.686,2.687c0,2.006,1.618,2.425,3.465,2.674l0.469,0.062c0.668,0.093,1.291,0.234,1.291,0.762
	c0,0.622-0.67,0.873-1.434,0.873c-0.826-0.002-1.555-0.251-1.555-1.073h-2.407c0,0.449,0.201,2.825,3.821,2.825
	c3.219,0,3.996-1.568,3.996-2.889c0-3.467-5.254-2.083-5.254-3.405c0-0.591,0.65-0.777,1.258-0.777
	C212.486,55.892,213.044,56.218,213.044,56.808 M206.803,62.854V54.26h-2.392v4.942c0,1.136-0.607,1.818-1.632,1.818
	c-0.825,0-1.308-0.481-1.308-1.459V54.26h-2.393v5.751c0,1.678,0.979,2.951,2.983,2.951c1.197,0,1.959-0.435,2.379-0.869v0.76
	L206.803,62.854L206.803,62.854z M191.718,59.622l-2.177-7.646h-3.636v10.879h2.423v-7.708l2.223,7.708h2.333l2.224-7.708v7.708
	h2.423V51.976h-3.636L191.718,59.622z M181.162,51.355h-2.391v11.499h2.391V51.355z M177.333,51.355h-2.391v11.499h2.391V51.355z
	 M173.494,62.854V54.26h-2.393v4.942c0,1.136-0.606,1.818-1.633,1.818c-0.823,0-1.307-0.481-1.307-1.459V54.26h-2.391v5.751
	c0,1.678,0.978,2.951,2.981,2.951c1.197,0,1.96-0.435,2.38-0.869v0.76L173.494,62.854L173.494,62.854z M161.944,55.1
	c0,0.777-0.528,1.197-1.275,1.197h-2.41v-2.333h2.379C161.369,53.964,161.944,54.321,161.944,55.1 M162.255,59.545
	c0,0.855-0.513,1.336-1.493,1.336h-2.503v-2.613h2.474C161.679,58.269,162.255,58.751,162.255,59.545 M164.74,59.623
	c0-1.587-1.087-2.27-1.863-2.534c0.635-0.312,1.475-1.042,1.475-2.285c0-2.13-1.785-2.829-3.434-2.829h-5.114v10.879h5.177
	C163.576,62.854,164.74,61.177,164.74,59.623 M145.03,58.58c0-1.166,0.435-2.486,1.929-2.486c0.498,0,1.041,0.108,1.368,0.591
	c0.25,0.357,0.359,0.901,0.359,1.865c0,0.747-0.048,1.336-0.312,1.772c-0.264,0.42-0.762,0.7-1.508,0.7
	c-1.54,0-1.835-1.398-1.835-2.44L145.03,58.58L145.03,58.58z M148.717,62.854h2.344V51.355h-2.391v3.449
	c-0.374-0.357-1.104-0.651-2.068-0.651c-2.549,0-4.024,1.909-4.024,4.474c0,1.275,0.434,4.335,3.807,4.335
	c1.354,0,2.068-0.559,2.333-0.838V62.854L148.717,62.854z M136.122,57.493c0.094-0.855,0.793-1.462,1.679-1.462
	c0.746,0,1.461,0.404,1.556,1.462H136.122z M137.724,62.963c2.953,0,3.948-1.941,4.072-3.013l-2.362-0.047
	c-0.03,0.279-0.389,1.119-1.632,1.119c-1.306,0-1.756-0.994-1.756-1.944h5.907v-0.295c0-2.736-1.492-4.629-4.166-4.629
	c-2.471,0-4.242,1.753-4.242,4.411C133.544,61.131,134.974,62.963,137.724,62.963 M126.593,56.687V53.98h2.178
	c0.994,0,1.522,0.45,1.522,1.338c0,0.808-0.637,1.369-1.632,1.369H126.593z M132.53,59.575c0-0.995-0.482-1.74-1.521-1.958
	c1.133-0.528,1.661-1.57,1.661-2.673c0-1.679-1.147-2.969-3.542-2.969h-4.989v10.879h2.455v-4.135h2.115
	c0.917,0,1.368,0.404,1.368,1.244v1.68c0,0.481,0,1.025,0.108,1.211h2.578c-0.107-0.17-0.232-0.668-0.232-1.041L132.53,59.575
	L132.53,59.575z"/>
<path fill="#FFFFFF" d="M253.771,36.562c-0.342-0.366-0.846-0.622-1.021-1.086c-0.303-0.715-0.16-1.676-0.852-2.176
	c-0.639-0.13-1.387,0.021-1.873-0.479c-0.266-0.245-0.373-0.595-0.273-0.952c0.402-0.859,0.654-1.863,0.441-2.899
	c0.041-0.335-0.396-0.699,0-0.981c1.211,0.327,2.799,0.45,3.879-0.243c1.006-0.663,1.707-1.69,1.639-2.93
	c-0.266-1.72-1.447-3.089-2.824-4.321c-0.174-0.154-0.314-0.313-0.303-0.542c0.029-0.128,0.045-0.289,0.195-0.342
	c0.723-0.045,1.426-0.144,2.047-0.44c1.1-0.603,1.385-1.81,1.227-2.999c-0.045-0.077-0.039-0.229-0.168-0.205
	c-0.303,0.319-0.654,0.5-1.023,0.647c-1.389,0.189-2.697,0.548-3.707,1.634c-0.344,0.427-0.381,1.203-0.107,1.667
	c0.854,1.636,2.846,2.625,3.303,4.427c0.258,0.777-0.086,1.47-0.678,1.971c-0.906,0.565-2.191,0.464-3.104,0
	c-2.16-1.094-3.975-3.044-6.361-3.576c-1.387-0.167-2.557-0.837-3.615-1.804c-0.896-0.69-2.061-0.791-3.096-1.157
	c-0.951-1.003-2.082-1.582-3.271-2.039c-0.67-0.298-1.508-0.206-2.074-0.754c-0.377-0.562-0.951-1.064-1.492-1.429
	c-0.83-0.474-2.033-0.861-2.93-0.343c-0.072,0.061-0.145,0.117-0.217,0.178c-1.854-3.116-4.586-5.654-7.848-7.27V0L207.29,2.592
	v4.026c-5.087,1.126-9.406,4.318-12.028,8.649c-0.624-0.023-1.25,0.094-1.76,0.39c-1.446,1.273-3.243,1.72-4.938,2.413
	c-0.944,0.464-1.537,1.523-2.48,1.978c-1.293-0.021-2.436,0.314-3.372,1.158c-0.773,0.905-1.695,1.597-2.792,1.803
	c-1.954,0.06-3.568,0.903-4.975,2.282c-1.378,0.883-2.725,2.046-4.527,1.667c-0.679-0.184-1.331-0.8-1.567-1.461
	c-0.428-1.415,0.44-2.58,1.5-3.478c1.003-0.897,2.427-1.81,2.114-3.332c-0.236-1.293-1.675-1.545-2.726-1.775
	c-1.087-0.02-1.924-0.63-2.792-1.153c-0.205,0.319-0.282,0.683-0.244,1.086c0.084,1.004,0.906,2.04,1.873,2.351
	c0.629,0.359,1.492-0.152,2.076,0.306c0.175,0.166,0.105,0.34,0.069,0.545c-1.18,1.196-2.969,2.374-3.265,4.05
	c-0.237,1.346,0.242,2.608,1.293,3.476c1.142,0.882,2.982,1.08,4.323,0.479c0.159-0.062,0.371-0.052,0.479,0.129l0.136,1.841
	c0.069,0.859,0.755,1.499,0.646,2.382c-0.426,0.479-1.011,0.707-1.536,1.027l-1.36,0.137c-0.38,0.297-0.526,0.754-0.648,1.188
	c-0.045,0.98-1.157,1.573-1.872,2.047c-0.252,0.493-0.708,1.18-1.363,1.155c-0.455,0.524-0.484,1.225-0.645,1.873
	c0.623,0.061,1.209,0.311,1.87,0.167c0.813-0.176,0.913-1.057,1.361-1.597c0.534-0.557,1.249,0.061,1.843-0.139
	c0.752-0.373,1.483-0.83,2.107-1.527c1.43-0.724,3.058,0.431,4.428-0.345c0.608-0.706,1.613-0.584,2.076-1.46
	c0.251-0.677,0.753-1.248,0.854-1.977c-0.146-0.145-0.281-0.312-0.479-0.342c-0.161,0.312-0.356,0.6-0.54,0.89
	c-0.867,1.429-2.403,1.856-3.918,2.008c-2.011-0.045-3.829,0.359-5.145,2.009h-0.138c-0.091-0.03-0.144-0.076-0.167-0.174
	c0.692-1.226,1.939-2.101,3.271-2.284c2.094-0.203,4.438-0.257,5.585-2.313c0.737-1.102,0.519-2.601,0.844-3.879
	c0.016-0.152,0.116-0.282,0.275-0.274c0.083,0.037,0.211,0.061,0.244,0.175c-0.147,1.05-0.2,2.191,0.167,3.166
	c0.653,0.867,1.933,0.395,2.792,0.235c1.636-0.349,3.089,0.518,4.763,0.168c0.184-0.084,0.342-0.19,0.273-0.441
	c-0.067-0.366-0.289-0.662-0.206-1.089c0.054-0.121,0.176-0.204,0.312-0.204c0.251,0.136,0.206,0.454,0.307,0.682
	c0.66,1.933,3.506,1.826,3.673,4.087c-0.25,0.829-1.142,1.142-1.87,1.324c-1.356,0.312-1.652-1.338-2.421-2.041
	c-0.668-0.41-1.56-0.103-2.274,0c-0.182,0.07-0.244,0.254-0.206,0.443l0.815,1.324c0.297,0.632,1.094-0.113,1.431,0.517
	c0.312,0.685,0.976,1.508,1.802,1.53c1.249-0.259,2.358-0.807,3.508-1.294c0.442-0.57,1.286-0.158,1.842-0.479
	c0.18-0.07,0.292-0.214,0.394-0.373c3.437,4.515,8.869,7.438,14.966,7.438c6.295,0,11.871-3.109,15.283-7.87
	c0.023,0.098,0.049,0.195,0.064,0.294c0.152,0.702,0.898,0.26,1.361,0.48c0.625,0.92,1.705,0.869,2.598,1.225
	c0.633,0.212,1.25,0.572,1.971,0.48c0.686-0.206,1.104-0.929,1.154-1.605c0.221-0.329,0.77-0.039,1.021-0.375
	c0.303-0.469,0.699-0.881,0.889-1.392c-0.289-0.409-0.889-0.206-1.328-0.311c-0.107,0.045-0.289,0.037-0.375,0.037l-0.029-0.037
	c-0.982-0.062-1,1.064-1.502,1.602c-0.189,0.224-0.486,0.193-0.752,0.239c-0.799-0.29-2.045-0.404-2.107-1.53
	c0.312-0.661,1.021-1.247,1.602-1.703c0.658-0.13,1.258-0.487,1.701-1.089c0.342-0.312,0.205-1.006,0.814-1.026
	c0.273,0.433,0,0.988-0.207,1.398c1.143,0.132,2.252-0.06,3.312-0.242c1.617-0.39,3.141,0.495,4.691-0.099
	c0.785-0.39,0.838-1.272,0.922-2.039l-0.041-0.039l0.041-0.03c-0.008-0.411-0.113-0.776-0.168-1.165
	c-0.023-0.175-0.1-0.417,0.031-0.577c0.121-0.07,0.205-0.053,0.303,0.038c0.648,1.446,0.352,3.285,1.158,4.664
	c0.561,1.172,1.709,2.009,2.996,2.076c0.053,0.009,0.105-0.075,0.137,0c2.057-0.409,3.855,0.411,5.076,1.97v0.107
	c-0.078,0.077-0.145,0.178-0.273,0.138c-0.229-0.297-0.533-0.418-0.781-0.685c-1.139-1.095-2.781-1.163-4.361-0.98
	c-1.631,0.045-3.137-1.324-3.707-2.762c-0.139-0.145-0.129-0.458-0.379-0.441c-0.076,0.054-0.1,0.134-0.129,0.205
	c0.1,1.064,0.244,2.101,0.98,2.891c0.697,0.342,1.246,1.042,2.049,1.128c1.117-0.269,2.434-0.146,3.436,0.302
	c0.791,0.306,1.436,0.983,2.146,1.462c0.402,0.197,0.943,0.099,1.293-0.167c0.908-0.244,1.053,0.836,1.668,1.261
	c0.518,0.396,1.277,0.229,1.941,0.267l0.105-0.061c-0.092-0.624-0.221-1.233-0.48-1.772
	C254.654,38.001,254.21,37.134,253.771,36.562 M228.128,18.857c0.205-0.006,0.436-0.022,0.512,0.207
	c0.113,0.403-0.357,0.661-0.607,0.92c-0.84,0.632-1.602,1.499-2.047,2.352h-0.07C225.847,20.89,226.912,19.64,228.128,18.857
	 M208.494,5.421l9.978-2.016l0.008,4.18c-2.199-0.903-4.604-1.405-7.131-1.405c-0.971,0-1.925,0.076-2.857,0.219L208.494,5.421z
	 M195.784,20.286c0.122-0.013,0.266-0.067,0.372,0c0.335,0.244,0.479,0.625,0.648,0.96c0.182,0.638,0.25,1.446,0.066,2.107
	l-0.098,0.069c-0.098-0.161-0.098-0.366-0.138-0.548c-0.136-0.805-0.495-1.529-0.949-2.213
	C195.669,20.524,195.686,20.387,195.784,20.286 M229.492,31.899l-1.363,1.842l-0.197,0.408c-0.189,0.4-0.068,0.968-0.105,1.395
	c-0.334-0.177-0.355-0.594-0.479-0.92c-0.312-1.317,0.986-2.048,1.43-3.099c-0.289-0.122-0.549-0.309-0.881-0.34
	c-0.695,0.837-1.104,1.786-1.641,2.692c-0.035,0.301-0.008,0.586,0.051,0.864c-3.195,4.877-8.705,8.106-14.957,8.106
	c-5.941,0-11.214-2.918-14.465-7.394c0.226-0.409,0.461-0.814,0.397-1.339c-0.015-0.709-0.685-1.15-0.919-1.773
	c-0.137-0.319-0.268-0.67-0.442-0.95c-0.365-0.146-0.837-0.315-1.193-0.031c0.44,0.937,1.011,1.817,1.467,2.755
	c0.107,0.774-0.319,1.422-0.854,1.976c-0.075,0.078-0.181,0.01-0.242-0.069c0.167-0.561,0.389-1.139,0.344-1.733
	c-0.534-1.035-1.24-1.992-1.768-3.035c0.017-0.185,0.075-0.39,0.269-0.474c0.532-0.258,1.224-0.158,1.635-0.615
	c0.503-0.867,0.852-1.796,0.951-2.823c0.062-0.052,0.113-0.136,0.206-0.106c0.099,0.059,0.099,0.159,0.136,0.243
	c0.198,1.149-0.129,2.167-0.646,3.06c-0.077,0.106-0.008,0.219,0.065,0.311c0.384,0.166,0.786-0.031,1.16-0.069
	c0.698-0.5,1.702-0.28,2.484-0.577c0,0.081,0.14,0.099,0.103,0.198c-0.396,0.433-0.57,0.974-0.679,1.536
	c-0.473,0.532-1.195,0.966-1.195,1.705c0.122,0.304,0.389,0,0.579,0c0.13,0,0.206,0.143,0.175,0.267
	c-0.183,0.34-0.548,0.607-0.548,1.026c0.183,0.448,0,1.15,0.616,1.325c1.407,0.25,2.421-0.877,3.843-0.815
	c1.081,0.275,2.009-0.219,2.724-1.027c0.198-0.109,0.365,0.053,0.548,0.106c0.769,0.813,1.659,1.303,2.694,1.461
	c0.319,0.044,0.724,0.077,1.02-0.031c0.068-0.074,0.021-0.204-0.035-0.273c-0.762-0.298-1.51-0.723-2.08-1.431
	c-0.319-0.879-0.746-1.733-1.394-2.486c-0.052-0.048-0.052-0.169,0.029-0.199c0.73,0.175,1.348,0.913,1.674,1.559
	c0.592,0.913,1.484,1.666,2.62,1.569c0.137-0.04,0.342-0.025,0.305-0.237c-1.734-0.539-2.018-2.418-3.374-3.44
	c-0.659-1.644-1.254-3.308-1.559-5.103c-0.045-1.638-0.966-2.922-1.981-4.153c-1.595-2.42-4.099-3.8-6.188-5.586l-0.685-0.373
	c-0.27-0.161-0.574-0.288-0.897-0.376c2.474-3.898,6.416-6.778,11.04-7.857v5.993c-0.312-0.142-0.452-0.139-0.662-0.139
	c-2.1,0-3.943,1.956-3.943,3.256c0,0.885,0.698,1.396,1.633,1.396c1.026,0,2.264-0.536,3.173-1.488
	c0.723-0.767,0.977-1.535,0.977-2.909l0.022-6.344c0.93-0.149,1.886-0.231,2.859-0.231c2.533,0,4.945,0.532,7.131,1.486l0.006,2.38
	c-0.312-0.14-0.453-0.139-0.664-0.139c-2.102,0-3.943,1.954-3.943,3.257c0,0.886,0.701,1.397,1.633,1.397
	c1.029,0,2.266-0.535,3.174-1.488c0.721-0.771,0.98-1.537,0.98-2.911V9.156c2.959,1.565,5.434,3.934,7.121,6.817
	c-2.295,1.765-4.758,3.125-6.928,5.168c-1.453,1.356-2.227,2.997-2.693,4.772c-1.086,3.104-1.336,6.845-4.625,8.748
	c-0.021,0.102,0.021,0.175,0.1,0.237c0.736,0.147,1.537-0.022,2.047-0.647c0.496-0.784,1.096-1.521,1.805-2.212h0.137
	c0.258,0.052,0.045,0.273,0.068,0.41c-0.99,0.943-1.008,2.35-2.32,3.097c-0.146,0.128-0.525,0.35-0.266,0.546
	c1.451,0.152,2.518-0.92,3.533-1.841l0.207-0.03c0.58,0.357,1.014,1.127,1.775,0.951c1.514-0.417,2.547,0.526,3.77,0.92
	c0.367,0.161,0.643-0.121,0.893-0.341c0.533-0.374,0.26-1.049,0.238-1.568l0.098-0.098c0.252-0.03,0.562,0.212,0.754-0.069
	c0.084-0.685-0.502-1.172-0.785-1.735c-0.15-1.117-1.438-1.765-1.633-2.861c0.061-0.046,0.104-0.128,0.17-0.136
	c0.523,0.304,0.947,0.814,1.463,1.119c0.785,0.396,1.729,0.378,2.656,0.41c0.145-0.031,0.145-0.174,0.135-0.304
	c-0.482-1.089-0.895-2.215-0.811-3.545c0.08-0.405-0.094-1.013,0.4-1.158c0.121,0.031,0.139,0.167,0.205,0.244
	c0.062,1.188,0.086,2.404,0.617,3.401c0.287,0.716,1.051,1.128,1.629,1.566C229.554,31.276,229.621,31.632,229.492,31.899
	 M203.68,27.744c-0.173-0.084-0.386-0.076-0.539,0.069l-0.548,0.645c-0.181-0.081-0.092-0.379-0.066-0.539
	c0.196-0.495,0.471-0.966,0.646-1.468c0.093-0.154,0.312-0.107,0.441-0.07c0.531,0.343,0.632,0.972,1.154,1.362
	c0.413,0.555,0.672,1.383,0.313,2.048c-0.106,0.006-0.235,0.142-0.313,0C204.846,28.931,204.343,28.238,203.68,27.744
	 M202.526,33.261c0.288-0.259,0.584-0.595,1.018-0.405l0.069,0.266c0.046,0.259-0.062,0.458-0.167,0.646
	c-0.358,0.1-0.73,0.254-1.127,0.139C202.22,33.662,202.457,33.473,202.526,33.261 M221.181,28.254
	c-0.072-0.09-0.105-0.229-0.232-0.267c-0.496-0.121-0.861,0.29-1.229,0.579c-0.6,0.365-0.775,0.974-0.92,1.567
	c-0.037,0.106-0.15,0.046-0.234,0.069c-0.307-0.303,0-0.684,0-1.029c0.305-1.035,1.479-1.612,2.039-2.547
	c0.6-0.023,0.676,0.663,0.959,1.019c0.074,0.289,0.447,0.654,0.068,0.921C221.427,28.605,221.244,28.429,221.181,28.254
	 M221.218,33.908c-0.248,0.076-0.508,0-0.748-0.032c-0.285-0.152-0.299-0.479-0.377-0.754c0.062-0.089,0.016-0.257,0.139-0.303
	c0.344,0.022,0.672,0.15,0.885,0.409C221.205,33.435,221.388,33.679,221.218,33.908 M192.375,35.512
	c0.045-0.167-0.084-0.26-0.13-0.379c-0.167-0.337-0.243-0.701-0.448-1.02c-0.434-0.017-0.929,0.015-1.361,0.105l-0.032-0.038
	c-0.12,0.061-0.273,0.023-0.408,0.038c-0.07,0.047-0.1,0.114-0.1,0.198c0.593,0.349,0.737,1.005,1.058,1.536
	C191.47,36.22,191.965,35.809,192.375,35.512 M232.324,34.319c-0.193-0.011-0.406,0.014-0.553,0l-0.027,0.029
	c-0.242-0.077-0.547,0.014-0.783-0.061c-0.26,0.335-0.434,0.746-0.344,1.188c0.154,0.273,0.479,0.28,0.713,0.41
	c0.262,0.014,0.633,0.135,0.818-0.106c0.182-0.434,0.324-0.883,0.408-1.362C232.496,34.342,232.419,34.302,232.324,34.319
	 M167.113,37.209c0.375,0.161,0.671-0.091,0.922-0.336c0.212-0.349,0.548-0.647,0.606-1.057c-0.105-0.257-0.426-0.5-0.678-0.341
	c-0.354,0.577-1.512,0.568-1.194,1.467C166.885,37.034,166.971,37.195,167.113,37.209 M255.035,35.444l-0.242-0.039
	c-0.162,0.146-0.529,0.243-0.443,0.548c0.352,0.473,0.596,1.249,1.268,1.326c0.215-0.101,0.492-0.154,0.604-0.406
	c0.031-0.174,0.115-0.326,0-0.479L255.035,35.444z M165.822,37.416c-0.482,0.287-0.465,0.843-0.444,1.361
	c-0.008,0.326-0.387,0.503-0.341,0.851c0.357,0.123,0.692,0.32,1.086,0.343c0.223-0.662,0.368-1.361,0.549-2.046l-0.617-0.607
	C165.964,37.317,165.897,37.384,165.822,37.416 M257.552,37.893c-0.125-0.195-0.266-0.402-0.479-0.509
	c-0.342-0.175-0.557,0.244-0.746,0.442c-0.053,0.518,0.203,0.996,0.303,1.497c0.068,0.237-0.014,0.573,0.209,0.715l1.018-0.305
	l0.039-0.272C257.484,39.057,257.714,38.397,257.552,37.893"/>
<path fill="#FFFFFF" d="M237.835,85.337h1.357c-0.037-0.673-0.428-2.058-2.746-2.058c-1.854,0-2.861,0.892-2.861,2.058
	c0,2.152,2.229,1.932,3.523,2.229c0.568,0.13,0.816,0.336,0.816,0.791c0,0.465-0.402,0.997-1.584,0.997
	c-1.072,0-1.449-0.557-1.461-1.113h-1.426c0.041,1.464,1.256,2.214,2.811,2.214c2.475,0,3.045-1.269,3.045-2.214
	c0-2.139-2.355-1.905-3.627-2.229c-0.455-0.117-0.725-0.337-0.725-0.752c0-0.711,0.879-0.88,1.438-0.88
	C237.201,84.378,237.769,84.612,237.835,85.337 M232.105,90.323v-1.139c0,0-0.545,0.027-0.803,0.027
	c-0.66,0-0.791-0.116-0.791-0.842v-3.861h1.711V83.37h-1.711v-2.073h-1.373v2.073h-1.111v1.138h1.111v4.25
	c0,1.023,0.365,1.657,1.607,1.657C231.457,90.414,232.105,90.323,232.105,90.323 M226.675,90.363v-4.818
	c0-1.373-0.957-2.265-2.459-2.265c-1.037,0-1.764,0.44-2.166,0.957v-0.866h-1.357v6.993h1.371v-3.885
	c0-1.336,0.816-2.022,1.814-2.022c0.906,0,1.426,0.505,1.426,1.502v4.404H226.675z M215.83,89.314c-1.426,0-1.879-1.101-1.906-2.15
	h4.977v-0.35c0-2.292-1.203-3.534-3.109-3.534c-1.904,0-3.275,1.396-3.275,3.585c0,2.345,1.268,3.589,3.199,3.589
	c2.447,0,3.055-1.644,3.133-2.434l-1.346-0.027C217.435,88.525,216.955,89.314,215.83,89.314 M213.976,86.09
	c0.115-1.051,0.789-1.686,1.789-1.686c0.844,0,1.656,0.427,1.684,1.686H213.976z M209.611,85.337h1.357
	c-0.039-0.673-0.426-2.058-2.745-2.058c-1.854,0-2.862,0.892-2.862,2.058c0,2.152,2.228,1.932,3.521,2.229
	c0.571,0.13,0.818,0.336,0.818,0.791c0,0.465-0.402,0.997-1.582,0.997c-1.075,0-1.452-0.557-1.465-1.113h-1.424
	c0.041,1.464,1.256,2.214,2.812,2.214c2.473,0,3.042-1.269,3.042-2.214c0-2.139-2.355-1.905-3.625-2.229
	c-0.455-0.117-0.726-0.337-0.726-0.752c0-0.711,0.88-0.88,1.438-0.88C208.975,84.378,209.543,84.612,209.611,85.337 M200.755,89.314
	c-1.426,0-1.879-1.101-1.905-2.15h4.975v-0.35c0-2.292-1.205-3.534-3.107-3.534c-1.906,0-3.276,1.396-3.276,3.585
	c0,2.345,1.268,3.589,3.198,3.589c2.448,0,3.056-1.644,3.133-2.434l-1.347-0.027C202.361,88.525,201.882,89.314,200.755,89.314
	 M198.901,86.09c0.115-1.051,0.79-1.686,1.789-1.686c0.842,0,1.658,0.427,1.685,1.686H198.901z M196.347,84.767v-1.398h-0.491
	c-0.636,0-1.529,0.233-1.995,1.112v-1.112h-1.346v6.993h1.371v-3.809c0-1.308,0.7-1.786,2.009-1.786H196.347z M189.349,86.893
	c0,1.451-0.647,2.422-1.97,2.422c-0.699,0-1.166-0.272-1.426-0.647c-0.323-0.479-0.375-1.102-0.375-1.789
	c0-0.595,0.063-1.152,0.271-1.567c0.273-0.544,0.806-0.894,1.646-0.894C188.855,84.417,189.349,85.505,189.349,86.893z
	 M187.521,90.453c2.267,0,3.224-1.708,3.224-3.691c0-1.737-0.789-3.483-3.042-3.483c-0.868,0-1.658,0.349-2.113,0.879v-0.789h-1.37
	v9.48h1.37v-3.106C185.874,90.038,186.433,90.453,187.521,90.453"/>
<path fill="#FFFFFF" d="M356.894,420.525h-12.422v12.422h12.422V420.525z M332.804,392.242h11.162c0-5.877,2.268-9.318,7.389-9.318
	c4.111,0,6.379,2.604,6.379,6.295c0,2.604-1.514,5.541-3.105,7.389c-3.861,4.615-9.402,9.566-9.484,17.623h10.994
	c0.588-7.635,13.096-12.924,13.096-25.18c0-5.201-1.932-9.398-5.623-12.086c-2.855-2.098-6.717-3.355-11.75-3.355
	C337.925,373.607,332.804,382.755,332.804,392.242 M310.035,433.537c12.17,0,19.471-6.547,20.898-15.695l-11.5-0.254
	c-0.924,4.281-4.615,6.549-9.146,6.549c-8.311,0-10.408-6.379-10.408-11.584h31.729v-2.434c0-13.598-7.303-23.754-21.152-23.754
	c-12.588,0-22.326,8.225-22.326,23.838C288.128,425.814,297.193,433.537,310.035,433.537 M300.298,404.412
	c0.588-5.457,4.783-8.729,10.072-8.729c4.615,0,8.896,2.434,9.23,8.729H300.298z M273.783,386.953l-17.543,18.633v-34.748h-11.33
	v62.111h11.33v-13.514l6.633-7.137l12.59,20.648h13.346l-17.877-28.451l17.037-17.543H273.783L273.783,386.953z M225.523,414.23
	c0,2.184-0.504,5.121-2.688,7.387c-1.762,1.764-5.035,3.105-8.729,3.105c-6.293,0-6.798-4.279-6.798-5.539
	c0-1.68,0.672-2.938,1.764-3.777c1.257-1.008,3.021-1.426,4.869-1.762c3.605-0.672,11.582-1.848,11.582-1.848V414.23z
	 M209.658,405.585c-4.028,0.588-14.015,3.023-14.015,13.514c0,9.232,6.546,14.438,15.611,14.438c6.465,0,11.414-1.93,14.605-5.203
	v4.615h11.582c0,0-0.59-2.938-0.59-6.463v-25.348c0-6.631-2.35-14.771-18.631-14.771c-17.123,0-20.648,8.729-20.648,15.527h10.912
	c0-1.512,0.169-6.295,8.728-6.295c6.801,0,8.311,2.35,8.311,5.959v1.596L209.658,405.585z M163.203,405.585
	c0-6.545,3.607-9.566,7.973-9.566c5.288,0,7.387,3.775,7.387,8.309v28.621h11.33v-31.727c0-8.73-5.707-14.855-15.61-14.855
	c-5.456,0-10.66,1.93-14.102,6.379c-2.266-3.861-6.126-6.379-12.338-6.379c-5.792,0-9.484,2.434-11.583,5.203v-4.615h-11.079v45.994
	h11.331v-27.361c0-6.547,3.861-9.568,8.227-9.568c5.287,0,7.134,3.777,7.134,8.311v28.621h11.332L163.203,405.585L163.203,405.585z"
	/>
<path fill="#FFFFFF" d="M439.269,355.064v-9.568c0,0-2.518,0.17-4.699,0.17c-3.693,0-4.617-0.59-4.617-4.031v-22.913h10.326v-9.483
	h-10.326V296.48h-11.33v12.758h-6.965v9.483h6.965v26.188c0,7.555,3.273,10.742,12.17,10.742
	C435.576,355.652,439.269,355.064,439.269,355.064 M407.527,309.238h-11.33v45.994h11.33V309.238z M407.527,293.121h-11.33v10.828
	h11.33V293.121z M359.015,322.75h11.164c0-3.356-1.596-14.1-18.885-14.1c-10.576,0-19.139,4.699-19.139,14.016
	c0,7.807,4.701,11.08,10.072,12.674c2.604,0.756,5.371,1.176,8.059,1.512c5.203,0.672,9.652,1.344,9.652,4.867
	c0,2.939-2.27,5.371-8.479,5.371c-4.867,0-9.064-1.762-9.064-6.463h-11.162c0,2.352,0.756,15.193,19.473,15.193
	c16.197,0,20.732-8.227,20.732-15.193c0-5.789-2.771-8.979-6.381-10.824c-5.709-2.939-13.85-2.939-18.381-4.282
	c-2.016-0.588-3.189-1.93-3.189-3.692c0-3.775,4.363-4.701,7.469-4.701C355.826,317.126,359.015,319.057,359.015,322.75
	 M306.013,355.82c12.168,0,19.473-6.549,20.898-15.695l-11.5-0.252c-0.922,4.281-4.617,6.547-9.146,6.547
	c-8.311,0-10.408-6.381-10.408-11.582h31.727v-2.436c0-13.598-7.301-23.752-21.15-23.752c-12.59,0-22.326,8.225-22.326,23.836
	C284.105,348.099,293.169,355.82,306.013,355.82 M296.277,326.695c0.586-5.457,4.783-8.729,10.07-8.729
	c4.615,0,8.896,2.434,9.232,8.729H296.277z M258.162,318.051c5.959,0,10.49,4.11,10.49,14.185c0,10.07-4.531,14.184-10.49,14.184
	s-10.492-4.111-10.492-14.184C247.669,322.162,252.203,318.051,258.162,318.051 M258.162,355.82
	c12.842,0,22.076-7.975,22.076-23.584c0-15.613-9.234-23.586-22.076-23.586s-22.074,7.973-22.074,23.586
	C236.087,347.845,245.32,355.82,258.162,355.82 M197.612,332.904c0-8.224,2.854-14.771,11.247-14.771c4.113,0,6.882,1.85,8.31,4.449
	c1.51,2.687,1.51,6.296,1.51,9.82c0,4.699-0.754,8.311-2.686,10.66c-1.762,2.182-4.533,3.355-8.141,3.355
	C199.04,346.419,197.612,338.697,197.612,332.904 M207.349,308.65c-15.275,0-21.317,11.33-21.317,24.592
	c0,4.615,0.839,9.064,2.685,12.674c2.855,5.707,8.312,9.904,17.459,9.904c5.204,0,9.989-2.016,12.674-4.699v4.111h11.16v-62.111
	h-11.33v19.474C215.994,310.16,212.384,308.65,207.349,308.65"/>
<path fill="#FFFFFF" d="M418.105,278.104c12.172,0,19.475-6.549,20.898-15.696l-11.498-0.252c-0.924,4.281-4.615,6.547-9.146,6.547
	c-8.312,0-10.408-6.381-10.408-11.582h31.727v-2.436c0-13.597-7.303-23.752-21.15-23.752c-12.59,0-22.326,8.225-22.326,23.835
	C396.201,270.382,405.265,278.104,418.105,278.104 M408.371,248.978c0.588-5.455,4.785-8.729,10.07-8.729
	c4.615,0,8.898,2.434,9.232,8.729H408.371z M371.779,278.104c12.758,0,20.229-7.219,21.068-17.206h-11.584
	c-0.586,5.034-4.195,7.805-9.062,7.805c-5.875,0-10.158-4.112-10.158-14.186c0-10.072,4.449-14.184,10.408-14.184
	c5.037,0,8.227,3.104,8.812,8.141h11.584c-1.176-11.498-9.232-17.542-20.562-17.542c-12.59,0-21.906,7.804-21.906,23.835
	C350.376,270.382,358.935,278.104,371.779,278.104 M344.781,277.515v-31.475c0-9.318-6.043-15.108-16.283-15.108
	c-5.875,0-10.492,2.349-13.094,5.455v-4.868H304.24v45.995h11.332v-25.937c0-7.387,4.363-10.994,9.902-10.994
	c4.953,0,7.977,2.938,7.977,8.394v28.537L344.781,277.515L344.781,277.515z M276.814,278.104c12.172,0,19.475-6.549,20.902-15.696
	l-11.502-0.252c-0.924,4.281-4.615,6.547-9.146,6.547c-8.311,0-10.408-6.381-10.408-11.582h31.727v-2.436
	c0-13.597-7.303-23.752-21.15-23.752c-12.592,0-22.326,8.225-22.326,23.835C254.91,270.382,263.972,278.104,276.814,278.104
	 M267.08,248.978c0.588-5.455,4.783-8.729,10.072-8.729c4.615,0,8.895,2.434,9.232,8.729H267.08z M252.882,242.934V231.52h-3.357
	c-5.539,0-9.82,2.601-11.918,6.798v-6.798h-10.91v45.995h11.328v-24.51c0-7.303,4.365-10.071,11.668-10.071H252.882L252.882,242.934
	z M199.27,278.104c12.169,0,19.472-6.549,20.898-15.696l-11.499-0.252c-0.925,4.281-4.616,6.547-9.148,6.547
	c-8.31,0-10.408-6.381-10.408-11.582h31.727v-2.436c0-13.597-7.303-23.752-21.15-23.752c-12.591,0-22.327,8.225-22.327,23.835
	C177.362,270.382,186.427,278.104,199.27,278.104 M189.533,248.978c0.587-5.455,4.783-8.729,10.072-8.729
	c4.615,0,8.896,2.434,9.231,8.729H189.533z M175.628,241.004v-9.483h-9.819v-3.777c0-2.854,2.015-3.106,4.197-3.106
	c2.938,0,5.622,0.167,5.622,0.167v-9.82c0,0-4.196-0.168-8.728-0.168c-8.311,0-12.422,3.945-12.422,11.332v5.373h-15.276v-3.19
	c0-2.854,2.015-3.104,4.197-3.104c2.938,0,5.624,0.167,5.624,0.167v-9.819c0,0-4.196-0.168-8.729-0.168
	c-8.311,0-12.423,3.945-12.423,11.331v4.785h-7.554v9.483h7.554v36.512h11.331v-36.512h15.276v36.512h11.33v-36.512h9.819V241.004z
	 M115.846,231.52h-11.331v45.995h11.331V231.52z M115.846,215.405h-11.331v10.828h11.331V215.405z M64.164,255.189
	c0-8.225,2.853-14.773,11.247-14.773c4.114,0,6.883,1.849,8.311,4.451c1.51,2.685,1.51,6.295,1.51,9.818
	c0,4.7-0.755,8.311-2.686,10.66c-1.762,2.182-4.532,3.357-8.141,3.357C65.591,268.703,64.164,260.979,64.164,255.189
	 M73.899,230.933c-15.276,0-21.318,11.331-21.318,24.592c0,4.616,0.839,9.064,2.686,12.674c2.854,5.709,8.31,9.906,17.458,9.906
	c5.204,0,9.988-2.018,12.675-4.701v4.111h11.163v-62.111H85.231v19.473C82.545,232.442,78.936,230.933,73.899,230.933"/>
<path fill="#FFFFFF" d="M249.042,199.631v-9.569c0,0-2.518,0.17-4.701,0.17c-3.691,0-4.615-0.588-4.615-4.03v-22.914h10.324v-9.483
	h-10.324v-12.759h-11.33v12.759h-6.967v9.483h6.967v26.189c0,7.554,3.273,10.743,12.17,10.743
	C245.349,200.219,249.042,199.631,249.042,199.631 M206.129,181.082c0,2.181-0.504,5.119-2.687,7.386
	c-1.763,1.764-5.035,3.105-8.729,3.105c-6.295,0-6.799-4.28-6.799-5.539c0-1.679,0.672-2.938,1.762-3.777
	c1.259-1.009,3.022-1.428,4.868-1.764c3.61-0.67,11.584-1.847,11.584-1.847V181.082L206.129,181.082z M190.266,172.437
	c-4.029,0.588-14.018,3.021-14.018,13.513c0,9.233,6.546,14.438,15.612,14.438c6.461,0,11.415-1.932,14.604-5.205v4.617h11.583
	c0,0-0.588-2.938-0.588-6.464v-25.348c0-6.629-2.35-14.771-18.633-14.771c-17.122,0-20.647,8.728-20.647,15.527h10.911
	c0-1.51,0.168-6.294,8.73-6.294c6.798,0,8.309,2.349,8.309,5.958v1.595L190.266,172.437z M170.592,199.799v-31.475
	c0-9.317-6.044-15.108-16.283-15.108c-5.875,0-10.071,2.349-12.927,5.456v-20.984h-11.331v62.111h11.331v-25.936
	c0-7.387,4.365-10.995,9.905-10.995c4.952,0,7.974,2.938,7.974,8.393v28.538H170.592z M125.688,141.045h-12.003l-8.226,47.674
	l-9.737-47.674H81.79l-9.486,47.674l-8.812-47.674h-12.59l12.003,58.754h17.207l8.644-43.311l8.562,43.311h16.87L125.688,141.045z"
	/>
<path fill="#FFFFFF" d="M409.781,459.839c1.627,0.002,2.254,1.062,2.289,1.891h2.402c-0.018-1.475-1.109-3.91-4.594-3.91
	c-3.977,0-5.32,3.248-5.32,6.018c0,2.371,0.828,5.951,5.205,5.951c3.217,0,4.607-2.121,4.758-3.994h-2.387
	c-0.018,0.58-0.463,1.975-2.32,1.975c-1.742,0-2.836-1.379-2.836-3.896C406.976,461.214,408.007,459.839,409.781,459.839
	 M402.738,458.001h-2.285v11.604h2.285V458.001z M398.689,466.009c0-1.461-0.779-2.207-1.725-2.652
	c-2.004-0.98-4.99-0.533-4.99-2.273c0-0.828,0.662-1.377,1.99-1.377c1.924,0.002,2.105,1.111,2.174,1.742h2.354
	c-0.186-2.785-2.254-3.629-4.576-3.629c-2.238,0-4.277,1.143-4.277,3.43c0,1.127,0.434,1.906,0.98,2.389
	c1.838,1.625,5.77,0.73,5.77,2.637c0,1.311-1.359,1.576-2.34,1.576c-1.426-0.002-2.24-0.631-2.24-1.906h-2.365
	c0.064,2.602,1.92,3.844,4.508,3.844C396.835,469.787,398.689,468.56,398.689,466.009z M383.246,467.867
	c-1.461,0-2.455-0.812-2.455-2.404v-7.461h-2.285v7.262c0,3.166,2.037,4.523,4.674,4.523c2.652,0,4.658-1.293,4.658-4.457v-7.328
	h-2.188v7.41C385.65,467.003,384.72,467.867,383.246,467.867 M370.375,466.439l-2.338-8.438h-3.596v11.604h2.283v-8.639l2.455,8.639
	h2.391l2.453-8.639v8.639h2.285v-11.604h-3.596L370.375,466.439z M351.007,463.904c0-2.656,1.078-4.064,2.854-4.064
	c1.625,0.002,2.221,1.062,2.256,1.891h2.385c-0.018-1.475-1.094-3.91-4.574-3.91c-3.979,0-5.338,3.248-5.338,6.018
	c0,3,1.258,5.951,5.141,5.951c1.275,0,2.32-0.447,3.066-1.275v1.094h2.07v-6.283h-4.957v1.988h2.77
	c-0.031,0.881-0.547,2.457-2.785,2.457C351.572,467.767,351.007,465.759,351.007,463.904 M346.763,469.605v-11.604h-2.268v8.088
	l-4.297-8.088H337.3v11.604h2.283v-8.156l4.396,8.156H346.763z M335.029,458.001h-2.285v11.604h2.285V458.001z M328.666,469.605
	h2.754l-4.527-6.646l4.277-4.957h-2.736l-4.475,5.32v-5.32h-2.287v11.604h2.287v-3.217l1.441-1.674L328.666,469.605z
	 M316.619,465.312h-3.084l1.521-5.555L316.619,465.312z M312.355,469.605l0.631-2.322h4.193l0.664,2.322h2.504l-3.582-11.604h-3.314
	l-3.482,11.604H312.355z M302.703,466.439l-2.338-8.438h-3.598v11.604h2.285v-8.639l2.455,8.639h2.389l2.453-8.639v8.639h2.287
	v-11.604h-3.598L302.703,466.439z M291.607,460.037v-2.035h-9.115v2.035h3.414v9.568h2.285v-9.568H291.607z M276.533,467.867
	c-1.459,0-2.455-0.812-2.455-2.404v-7.461h-2.285v7.262c0,3.166,2.037,4.523,4.674,4.523c2.652,0,4.658-1.293,4.658-4.457v-7.328
	h-2.188v7.41C278.937,467.003,278.009,467.867,276.533,467.867 M267.695,463.82c0,2.42-1.078,3.947-2.836,3.947
	c-1.773,0-2.836-1.527-2.836-3.947c0-2.572,1.061-3.98,2.836-3.98C266.617,459.839,267.695,461.248,267.695,463.82 M270.113,463.82
	c0-3.768-2.301-6.002-5.254-6.002c-2.969,0-5.254,2.234-5.254,6.002c0,3.781,2.285,5.967,5.254,5.967
	C267.812,469.787,270.113,467.601,270.113,463.82 M256.128,466.072c0,0.998-0.598,1.611-1.76,1.611h-2.803v-3.102h2.785
	C255.462,464.582,256.128,465.162,256.128,466.072 M255.761,461.298c0,0.914-0.58,1.43-1.477,1.43h-2.719v-2.807h2.688
	C255.117,459.921,255.761,460.386,255.761,461.298 M258.445,466.207c0-1.906-1.34-2.52-2.02-2.736
	c0.547-0.279,1.605-0.977,1.605-2.502c0-2.238-1.822-2.967-3.498-2.967h-5.254v11.604h5.32
	C257.251,469.605,258.445,467.832,258.445,466.207 M244.226,465.312h-3.086l1.527-5.555L244.226,465.312z M239.964,469.605
	l0.631-2.322h4.193l0.664,2.322h2.502l-3.58-11.604h-3.316l-3.48,11.604H239.964z M226.732,466.439l-2.34-8.438h-3.598v11.604h2.287
	v-8.639l2.455,8.639h2.387l2.455-8.639v8.639h2.287v-11.604h-3.596L226.732,466.439z M219.23,469.605v-2.039h-5.684v-9.564h-2.289
	v11.604H219.23L219.23,469.605z M208.989,458.001h-2.287v11.604h2.287V458.001z M205.023,460.037v-2.035h-8.056v11.604h2.285v-4.426
	h5.373v-2.072h-5.373v-3.068h5.771V460.037z M188.327,465.312h-3.083l1.523-5.555L188.327,465.312z M184.065,469.605l0.63-2.322
	h4.194l0.664,2.322h2.503l-3.581-11.604h-3.315l-3.481,11.604H184.065z"/>
<path fill="#FFFFFF" d="M133.92,345.546h-2.855l2.855-4.324V345.546z M136.801,347.027v-1.48h-1.09v-5.898h-2.464l-3.812,5.818
	v1.562h4.485v1.939h1.791v-1.939h1.089V347.027z M127.945,339.646h-1.604c-0.04,0.82-0.39,0.957-0.97,0.957h-0.753v1.6h1.427v6.766
	h1.899V339.646z M119.72,341.033c0.782,0,1.604,0.51,1.604,3.273c0,2.775-0.821,3.262-1.604,3.262c-0.78,0-1.604-0.486-1.604-3.262
	C118.117,341.542,118.939,341.033,119.72,341.033 M119.72,349.113c1.51,0,3.488-0.82,3.488-4.807s-1.979-4.822-3.488-4.822
	c-1.509,0-3.487,0.836-3.487,4.822S118.211,349.113,119.72,349.113 M111.546,339.484c-2.372,0-3.462,1.479-3.462,3.449h1.805
	c0-1.498,0.821-1.873,1.616-1.873c0.835,0,1.428,0.523,1.428,1.307c0,0.592-0.106,1.145-1.05,1.926l-3.569,2.965v1.711h6.424v-1.576
	h-4.108l2.506-2.049c1.008-0.82,1.603-1.654,1.603-2.99C114.737,340.669,113.484,339.484,111.546,339.484 M99.906,340.925
	c0.917,0,1.591,0.418,1.591,1.213c0,0.699-0.5,1.268-1.591,1.268c-1.092,0-1.59-0.566-1.59-1.268
	C98.316,341.343,98.99,340.925,99.906,340.925 M99.906,344.83c1.052,0,1.671,0.541,1.671,1.352c0,0.795-0.634,1.398-1.671,1.398
	s-1.67-0.604-1.67-1.398C98.236,345.371,98.854,344.83,99.906,344.83 M99.906,349.113c2.048,0,3.527-1.008,3.527-2.84
	c0-1.213-0.767-1.955-1.507-2.209c0.687-0.27,1.278-0.984,1.278-1.953c0-1.779-1.493-2.627-3.299-2.627
	c-1.805,0-3.313,0.848-3.313,2.627c0,0.969,0.605,1.684,1.292,1.953c-0.74,0.254-1.508,0.996-1.508,2.209
	C96.378,348.105,97.858,349.113,99.906,349.113 M94.531,339.646h-1.602c-0.041,0.82-0.391,0.957-0.97,0.957h-0.755v1.6h1.429v6.766
	h1.898V339.646z M78.799,339.539l3.125,6.033v3.395h1.845v-3.395l3.124-6.033h-2.06l-1.966,4.107l-1.938-4.107H78.799z
	 M76.037,342.353c0,0.377-0.175,0.74-0.444,0.971c-0.31,0.256-0.741,0.363-1.347,0.363h-1.753v-2.547h2.062
	C75.498,341.14,76.037,341.519,76.037,342.353 M77.706,346.111c-0.027-0.971-0.539-1.549-1.305-1.711
	c1.09-0.473,1.48-1.348,1.48-2.316c0-1.359-0.996-2.545-2.99-2.545h-4.256v9.43h1.857v-3.705h2.183c0.77,0,1.146,0.363,1.201,1.049
	c0.08,0.957,0,1.873,0.201,2.656h1.952c-0.068-0.107-0.147-0.311-0.215-0.77C77.76,347.794,77.732,347.216,77.706,346.111
	 M66.172,345.48h-2.506l1.24-4.516L66.172,345.48z M62.709,348.968l0.512-1.887h3.409l0.539,1.887h2.034l-2.911-9.43h-2.694
	l-2.829,9.43H62.709z M55.946,347.552c-1.186,0-1.995-0.66-1.995-1.953v-6.062h-1.856v5.9c0,2.572,1.655,3.676,3.798,3.676
	c2.155,0,3.783-1.049,3.783-3.621v-5.955H57.9v6.021C57.9,346.853,57.145,347.552,55.946,347.552 M48.384,342.353
	c0,0.377-0.174,0.74-0.444,0.971c-0.31,0.256-0.741,0.363-1.347,0.363h-1.752v-2.547h2.062
	C47.845,341.14,48.384,341.519,48.384,342.353 M50.054,346.111c-0.027-0.971-0.539-1.549-1.305-1.711
	c1.09-0.473,1.48-1.348,1.48-2.316c0-1.359-0.996-2.545-2.989-2.545h-4.257v9.43h1.858v-3.705h2.184
	c0.768,0,1.145,0.363,1.199,1.049c0.08,0.957,0,1.873,0.201,2.656h1.952c-0.067-0.107-0.147-0.311-0.215-0.77
	C50.107,347.794,50.081,347.216,50.054,346.111 M39.331,346.097c0,0.809-0.486,1.309-1.429,1.309h-2.278v-2.521h2.264
	C38.792,344.884,39.331,345.357,39.331,346.097 M39.035,342.216c0,0.742-0.472,1.16-1.199,1.16h-2.211v-2.275h2.184
	C38.509,341.099,39.035,341.478,39.035,342.216 M41.215,346.205c0-1.547-1.09-2.047-1.641-2.221c0.443-0.23,1.304-0.797,1.304-2.035
	c0-1.818-1.48-2.41-2.84-2.41h-4.269v9.43h4.323C40.246,348.968,41.215,347.527,41.215,346.205 M31.79,348.968v-1.656h-4.782v-2.252
	h4.324v-1.684h-4.324v-2.182h4.647v-1.656H25.15v9.43H31.79L31.79,348.968z M23.45,341.195v-1.656h-6.544v9.43h1.857v-3.598h4.364
	v-1.684h-4.364v-2.492H23.45L23.45,341.195z"/>
<path fill="#FFFFFF" d="M153.302,328.242v-1.654h-4.782v-2.251h4.325v-1.685h-4.325v-2.183h4.647v-1.655h-6.503v9.428H153.302z
	 M144.896,325.32c0-1.187-0.634-1.793-1.4-2.156c-1.63-0.795-4.056-0.432-4.056-1.846c0-0.674,0.539-1.117,1.617-1.117
	c1.562,0.002,1.712,0.901,1.767,1.414h1.911c-0.148-2.263-1.83-2.949-3.718-2.949c-1.818,0-3.475,0.93-3.475,2.787
	c0,0.916,0.351,1.55,0.794,1.939c1.495,1.32,4.689,0.594,4.689,2.143c0,1.064-1.107,1.281-1.9,1.281
	c-1.159-0.002-1.819-0.514-1.819-1.55h-1.925c0.055,2.114,1.562,3.123,3.663,3.123C143.388,328.389,144.896,327.393,144.896,325.32z
	 M133.458,324.755h-2.505l1.239-4.514L133.458,324.755z M129.997,328.242l0.512-1.885h3.409l0.539,1.885h2.034l-2.91-9.428h-2.693
	l-2.829,9.428H129.997z M126.699,328.242v-1.654h-4.782v-2.251h4.323v-1.685h-4.323v-2.183h4.647v-1.655h-6.505v9.428H126.699z
	 M118.425,328.242v-1.654h-4.62v-7.771h-1.857v9.428h6.478V328.242z M109.97,328.242v-1.654h-4.781v-2.251h4.323v-1.685h-4.323
	v-2.183h4.646v-1.655h-6.505v9.428H109.97z M99.479,321.628c0,0.378-0.176,0.74-0.444,0.971c-0.312,0.258-0.742,0.364-1.35,0.364
	h-1.752v-2.548h2.062C98.941,320.416,99.479,320.794,99.479,321.628 M101.148,325.386c-0.027-0.971-0.538-1.547-1.307-1.71
	c1.091-0.472,1.481-1.347,1.481-2.317c0-1.359-0.996-2.543-2.99-2.543h-4.257v9.428h1.857v-3.705h2.185
	c0.769,0,1.145,0.365,1.199,1.051c0.081,0.956,0,1.873,0.202,2.654h1.952c-0.067-0.107-0.148-0.311-0.217-0.77
	C101.202,327.07,101.175,326.492,101.148,325.386 M89.091,328.242v-1.654h-4.62v-7.771h-1.858v9.428h6.478V328.242z M78.15,324.755
	h-2.505l1.24-4.514L78.15,324.755z M74.688,328.242l0.513-1.885h3.408l0.539,1.885h2.034l-2.909-9.428h-2.694l-2.829,9.428H74.688z
	 M72.679,320.47v-1.654h-7.408v1.654h2.775v7.771h1.858v-7.771H72.679z M63.753,318.814h-1.857v9.428h1.857V318.814z
	 M53.397,323.609c0-2.154,0.875-3.301,2.317-3.301c1.322,0.001,1.806,0.859,1.833,1.535h1.939c-0.015-1.198-0.889-3.178-3.717-3.178
	c-3.233,0-4.337,2.639-4.337,4.891c0,2.438,1.022,4.833,4.174,4.833c1.038,0,1.888-0.362,2.492-1.036l0.001,0.889h1.681v-5.104
	h-4.027v1.613h2.251c-0.027,0.716-0.445,1.996-2.265,1.996C53.856,326.75,53.397,325.117,53.397,323.609 M49.598,318.814h-1.857
	v9.428h1.857V318.814z M43.963,323.46c0,2.588-1.441,3.193-2.6,3.193h-1.631v-6.252h1.631
	C42.522,320.402,43.963,320.875,43.963,323.46 M45.889,323.392c0-3.26-1.885-4.578-4.082-4.578h-3.933v9.428h3.596
	c1.456,0,2.641-0.565,3.342-1.414C45.552,325.912,45.889,324.673,45.889,323.392 M32.755,328.242v-1.654h-4.782v-2.251h4.325v-1.685
	h-4.325v-2.183h4.647v-1.655h-6.505v9.428H32.755z M24.137,328.242v-1.654h-4.783v-2.251h4.326v-1.685h-4.326v-2.183h4.648v-1.655
	h-6.505v9.428H24.137z M13.647,321.628c0,0.378-0.175,0.74-0.445,0.971c-0.31,0.258-0.742,0.364-1.348,0.364h-1.751v-2.548h2.062
	C13.108,320.416,13.647,320.794,13.647,321.628 M15.315,325.386c-0.026-0.971-0.538-1.547-1.305-1.71
	c1.09-0.472,1.481-1.347,1.481-2.317c0-1.359-0.997-2.543-2.989-2.543H8.246v9.428h1.857v-3.705h2.182
	c0.769,0,1.147,0.365,1.2,1.051c0.082,0.956,0,1.873,0.202,2.654h1.952c-0.068-0.107-0.148-0.311-0.215-0.77
	C15.37,327.07,15.342,326.492,15.315,325.386 M6.545,320.47v-1.654H0v9.428h1.858v-3.599h4.363v-1.682H1.858v-2.493H6.545z"/>
</svg>
