<svg xmlns="http://www.w3.org/2000/svg" xmlns:xlink="http://www.w3.org/1999/xlink" width="200" height="45" x="0" y="0" enable-background="new -3.259 -3.731 200 45" overflow="visible" version="1.1" viewBox="-3.259 -3.731 200 45" xml:space="preserve"><rect width="35.598" height="35.597" x="1" y="1" fill="#FFF"/><g><defs><rect id="SVGID_3_" width="193.598" height="37.597" y=".002"/></defs><clipPath id="SVGID_4_"><use overflow="visible" xlink:href="#SVGID_3_"/></clipPath><rect width="35.598" height="35.597" x="1" y="1" fill="none" stroke="#000" stroke-width="2" clip-path="url(#SVGID_4_)"/></g><polygon points="25.958 19.107 13.137 10.402 13.137 27.813"/><rect width="156" height="35.597" x="36.598" y="1" fill="#FFF"/><g><defs><rect id="SVGID_2_" width="193.598" height="37.597" y=".002"/></defs><clipPath id="SVGID_5_"><use overflow="visible" xlink:href="#SVGID_2_"/></clipPath><rect width="156" height="35.597" x="36.598" y="1" fill="none" stroke="#000" stroke-width="2" clip-path="url(#SVGID_5_)"/></g><g><defs><rect id="SVGID_1_" width="193.598" height="37.597" y=".002"/></defs><clipPath id="SVGID_6_"><use overflow="visible" xlink:href="#SVGID_1_"/></clipPath><path d="M129.057,9.89l6.264,12.096v6.806h3.699v-6.806l6.264-12.096h-4.131l-3.941,8.235l-3.889-8.235 H129.057z M124.332,21.796h-5.021l2.484-9.044L124.332,21.796z M117.393,28.791l1.025-3.781h6.831l1.08,3.781h4.076L124.573,9.89 h-5.399l-5.67,18.901H117.393z M112.154,28.791v-3.322h-9.26V9.89h-3.728v18.901H112.154z M92.984,16.073 c0,1.537-0.81,3.022-3.348,3.022h-3.482v-5.994h3.563C92.148,13.103,92.984,14.453,92.984,16.073 M96.873,15.965 c0-3.807-2.754-6.075-6.075-6.075h-8.37v18.901h3.727v-6.48h4.022c2.214,0,4.022-0.783,5.157-2.052 C96.333,19.149,96.873,17.666,96.873,15.965" clip-path="url(#SVGID_6_)"/></g></svg>