<?xml version="1.0" encoding="utf-8"?>
<!-- Generator: Adobe Illustrator 15.0.0, SVG Export Plug-In  -->
<!DOCTYPE svg PUBLIC "-//W3C//DTD SVG 1.1//EN" "http://www.w3.org/Graphics/SVG/1.1/DTD/svg11.dtd" [
	<!ENTITY ns_flows "http://ns.adobe.com/Flows/1.0/">
]>
<svg version="1.1"
	 xmlns="http://www.w3.org/2000/svg" xmlns:xlink="http://www.w3.org/1999/xlink" xmlns:a="http://ns.adobe.com/AdobeSVGViewerExtensions/3.0/"
	 x="0px" y="0px" width="292px" height="45px" viewBox="-3.865 -3.731 292 45"
	 overflow="visible" enable-background="new -3.865 -3.731 292 45" xml:space="preserve">
<defs>
</defs>
<rect x="1" y="1" fill="#181716" width="238" height="35.598"/>
<g>
	<defs>
		<rect id="SVGID_4_" y="0.002" width="284" height="37.598"/>
	</defs>
	<clipPath id="SVGID_5_">
		<use xlink:href="#SVGID_4_"  overflow="visible"/>
	</clipPath>
	<rect x="1" y="1" clip-path="url(#SVGID_5_)" fill="none" stroke="#FFFFFF" stroke-width="2" width="238" height="35.598"/>
</g>
<g>
	<defs>
		<rect id="SVGID_3_" y="0.002" width="284" height="37.598"/>
	</defs>
	<clipPath id="SVGID_6_">
		<use xlink:href="#SVGID_3_"  overflow="visible"/>
	</clipPath>
	<path clip-path="url(#SVGID_6_)" fill="#FFFFFF" d="M216.106,13.211V9.89h-13.123v18.9h3.727v-7.209h8.748v-3.375h-8.748v-4.995
		H216.106z M200.015,28.79v-3.321h-9.586V20.96h8.668v-3.375h-8.668v-4.374h9.316V9.89h-13.041v18.9H200.015z M180.278,19.205
		c0,5.184-2.89,6.397-5.211,6.397h-3.269V13.076h3.269C177.39,13.076,180.278,14.021,180.278,19.205 M184.14,19.069
		c0-6.532-3.781-9.18-8.182-9.18h-7.885v18.9h7.211c2.914,0,5.291-1.135,6.695-2.835C183.464,24.119,184.14,21.635,184.14,19.069
		 M155.978,19.205c0,5.184-2.889,6.397-5.211,6.397h-3.266V13.076h3.266C153.089,13.076,155.978,14.021,155.978,19.205
		 M159.839,19.069c0-6.532-3.779-9.18-8.18-9.18h-7.885v18.9h7.209c2.916,0,5.291-1.135,6.694-2.835
		C159.165,24.119,159.839,21.635,159.839,19.069 M137.213,15.533c0,0.756-0.352,1.483-0.892,1.942
		c-0.62,0.515-1.485,0.729-2.7,0.729h-3.51v-5.104h4.131C136.133,13.103,137.213,13.858,137.213,15.533 M140.561,23.065
		c-0.055-1.942-1.08-3.104-2.619-3.429c2.188-0.945,2.971-2.7,2.971-4.644c0-2.729-1.998-5.104-5.994-5.104h-8.532v18.9h3.726
		v-7.426h4.374c1.539,0,2.295,0.729,2.403,2.105c0.162,1.917,0,3.753,0.404,5.319h3.916c-0.135-0.217-0.297-0.621-0.433-1.539
		C140.668,26.44,140.615,25.279,140.561,23.065 M118.421,21.797h-5.022l2.484-9.045L118.421,21.797z M111.482,28.79l1.026-3.78
		h6.831l1.08,3.78h4.077l-5.832-18.9h-5.4l-5.67,18.9H111.482z M103.329,19.205c0,5.184-2.889,6.397-5.211,6.397h-3.267V13.076
		h3.267C100.44,13.076,103.329,14.021,103.329,19.205 M107.19,19.069c0-6.532-3.78-9.18-8.181-9.18h-7.884v18.9h7.209
		c2.916,0,5.292-1.135,6.696-2.835C106.515,24.119,107.19,21.635,107.19,19.069 M87.885,28.79V9.89h-3.699v13.176L77.193,9.89
		h-4.725v18.9h3.726V15.506l7.155,13.284H87.885z M64.503,21.797h-5.022l2.484-9.045L64.503,21.797z M57.564,28.79l1.026-3.78h6.831
		l1.08,3.78h4.077l-5.832-18.9h-5.4l-5.67,18.9H57.564z M54.621,13.211V9.89h-14.85v3.321h5.562V28.79h3.726V13.211H54.621z
		 M38.691,22.931c0-2.376-1.269-3.591-2.808-4.32c-3.267-1.593-8.127-0.862-8.127-3.697c0-1.352,1.08-2.241,3.24-2.241
		c3.132,0,3.429,1.809,3.537,2.835h3.834c-0.297-4.536-3.672-5.913-7.452-5.913c-3.645,0-6.966,1.863-6.966,5.589
		c0,1.836,0.702,3.105,1.593,3.888c2.997,2.646,9.396,1.188,9.396,4.295c0,2.133-2.214,2.563-3.807,2.563
		c-2.322,0-3.645-1.026-3.645-3.104h-3.861c0.108,4.237,3.132,6.264,7.344,6.264C35.667,29.087,38.691,27.089,38.691,22.931"/>
</g>
<rect x="239.001" y="1" fill="#181716" width="44" height="35.598"/>
<g>
	<defs>
		<rect id="SVGID_2_" y="0.002" width="284" height="37.598"/>
	</defs>
	<clipPath id="SVGID_7_">
		<use xlink:href="#SVGID_2_"  overflow="visible"/>
	</clipPath>
	<rect x="239.001" y="1" clip-path="url(#SVGID_7_)" fill="none" stroke="#FFFFFF" stroke-width="2" width="44" height="35.598"/>
</g>
<g>
	<defs>
		<rect id="SVGID_1_" y="0.002" width="284" height="37.598"/>
	</defs>
	<clipPath id="SVGID_8_">
		<use xlink:href="#SVGID_1_"  overflow="visible"/>
	</clipPath>
	<path clip-path="url(#SVGID_8_)" fill="#FFFFFF" d="M276.562,20.48c0,0.84-0.551,1.279-1.5,1.279h-2.021v-2.49h1.561
		C275.722,19.27,276.562,19.529,276.562,20.48 M276.351,17.33c0,0.8-0.65,1.22-1.41,1.22h-1.899v-2.312h2.012
		C275.761,16.238,276.351,16.509,276.351,17.33 M277.431,20.55c0-1.062-0.73-1.551-1.379-1.689c0.52-0.21,1.129-0.75,1.129-1.641
		c0-1.42-1.199-1.72-2.24-1.72h-2.75v6.999h3.041C276.751,22.499,277.431,21.49,277.431,20.55 M267.27,21.619l-2.09-6.119h-1.34
		v6.999h0.851V16.42l2.061,6.079h0.99l2.1-6.079v6.079h0.85V15.5h-1.279L267.27,21.619z M258.04,21.891
		c-0.709,0-1.521-0.431-1.521-2.86c0-2.421,0.812-2.841,1.521-2.841c0.711,0,1.512,0.42,1.512,2.841
		C259.552,21.46,258.751,21.891,258.04,21.891 M258.04,15.46c-1.1,0-2.398,0.659-2.398,3.569c0,2.931,1.299,3.579,2.398,3.579
		c1.102,0,2.4-0.648,2.4-3.579C260.44,16.119,259.142,15.46,258.04,15.46 M252.101,18.57c-0.9,0-1.49-0.439-1.49-1.22
		c0-0.791,0.621-1.171,1.49-1.171c0.859,0,1.48,0.38,1.48,1.171C253.581,18.13,253.001,18.57,252.101,18.57 M252.101,21.891
		c-0.99,0-1.59-0.54-1.59-1.33c0-0.791,0.561-1.312,1.59-1.312c1.02,0,1.582,0.521,1.582,1.312
		C253.683,21.351,253.081,21.891,252.101,21.891 M252.101,15.46c-1.271,0-2.289,0.648-2.289,1.851c0,0.79,0.459,1.359,1.139,1.59
		c-0.659,0.159-1.299,0.76-1.299,1.689c0,1.271,0.998,2.02,2.449,2.02s2.439-0.749,2.439-2.02c0-0.931-0.629-1.53-1.299-1.689
		c0.688-0.229,1.139-0.8,1.139-1.59C254.38,16.109,253.36,15.46,252.101,15.46 M248.03,16.339l-2.898,6.16h0.93l2.84-6.229v-0.669
		h-4.58v0.738H248.03z"/>
</g>
</svg>
